<?xml version="1.0" encoding="UTF-8"?>
<svg version="1.1" xmlns="http://www.w3.org/2000/svg" width="128" height="128">
<path d="M0 0 C42.24 0 84.48 0 128 0 C128 42.24 128 84.48 128 128 C85.76 128 43.52 128 0 128 C0 85.76 0 43.52 0 0 Z " fill="#030000" transform="translate(0,0)"/>
<path d="M0 0 C-0.165 0.763125 -0.33 1.52625 -0.5 2.3125 C-1.09145396 5.03596236 -1.09145396 5.03596236 -1 8 C-0.41992188 8.09796875 0.16015625 8.1959375 0.7578125 8.296875 C5.97765436 9.29605265 9.81525485 10.52972354 14 14 C15.375 16.25 15.375 16.25 16 18 C16.66 18 17.32 18 18 18 C18.103125 18.639375 18.20625 19.27875 18.3125 19.9375 C18.539375 20.618125 18.76625 21.29875 19 22 C20.485 22.495 20.485 22.495 22 23 C21.505 25.475 21.505 25.475 21 28 C19.515 28.495 19.515 28.495 18 29 C17.67 29.66 17.34 30.32 17 31 C11.22693648 33.54014795 4.80706703 35.77974084 -1.375 34.0625 C-2.674375 33.5365625 -2.674375 33.5365625 -4 33 C-4 33.66 -4 34.32 -4 35 C-3.01 35 -2.02 35 -1 35 C-1 35.66 -1 36.32 -1 37 C0.11375 37.185625 0.11375 37.185625 1.25 37.375 C4.65182825 38.14814278 7.19123185 38.76097809 9.16015625 41.77734375 C11.35622567 47.03460086 13.01155529 52.28111623 14.38671875 57.8125 C14.79588829 59.95921249 14.79588829 59.95921249 16 61 C17.20518615 72.29304062 17.11813343 83.6591908 17 95 C13.77769814 92.52513929 10.99455409 90.04149218 8.375 86.9375 C6.3138001 84.5078956 4.26045809 82.26045809 2 80 C-0.475 85.445 -0.475 85.445 -3 91 C-5.32562247 87.89917004 -6.68887329 85.75274643 -8.15625 82.3046875 C-8.53910156 81.42425781 -8.92195313 80.54382813 -9.31640625 79.63671875 C-10.10829834 77.78897054 -10.89734252 75.9399993 -11.68359375 74.08984375 C-12.06644531 73.21199219 -12.44929688 72.33414063 -12.84375 71.4296875 C-13.35711914 70.22675049 -13.35711914 70.22675049 -13.88085938 68.99951172 C-14.97573682 66.68746383 -14.97573682 66.68746383 -18 65 C-18 64.34 -18 63.68 -18 63 C-17.01 62.67 -16.02 62.34 -15 62 C-15.92683594 61.08476563 -16.85367188 60.16953125 -17.80859375 59.2265625 C-19.01836039 58.0261739 -20.22798865 56.82564583 -21.4375 55.625 C-22.04916016 55.02171875 -22.66082031 54.4184375 -23.29101562 53.796875 C-23.87431641 53.21679688 -24.45761719 52.63671875 -25.05859375 52.0390625 C-25.59798584 51.50490723 -26.13737793 50.97075195 -26.69311523 50.42041016 C-28 49 -28 49 -29 47 C-29.66 48.32 -30.32 49.64 -31 51 C-31 50.01 -31 49.02 -31 48 C-34.63 47.67 -38.26 47.34 -42 47 C-41.67 50.63 -41.34 54.26 -41 58 C-38.8653125 58.0309375 -38.8653125 58.0309375 -36.6875 58.0625 C-35.88699219 58.07410156 -35.08648437 58.08570313 -34.26171875 58.09765625 C-31.30718477 57.9700857 -29.49898442 57.46202261 -27.3125 55.4375 C-26.879375 54.963125 -26.44625 54.48875 -26 54 C-26.33 55.98 -26.66 57.96 -27 60 C-33.6 60 -40.2 60 -47 60 C-47 51.42 -47 42.84 -47 34 C-45.02 33.505 -45.02 33.505 -43 33 C-43.43868408 32.53625977 -43.87736816 32.07251953 -44.3293457 31.59472656 C-46.32584839 29.48180741 -48.31919793 27.36593865 -50.3125 25.25 C-51.00279297 24.52039063 -51.69308594 23.79078125 -52.40429688 23.0390625 C-53.07138672 22.33007812 -53.73847656 21.62109375 -54.42578125 20.890625 C-55.03848877 20.24125977 -55.65119629 19.59189453 -56.2824707 18.92285156 C-57.97886114 17.02366591 -59.50372016 15.05913745 -61 13 C-60.34 12.01 -59.68 11.02 -59 10 C-58.34 10 -57.68 10 -57 10 C-56.608125 10.86625 -56.21625 11.7325 -55.8125 12.625 C-54.40112238 15.25308247 -53.21982946 17.05006886 -51.3125 19.25 C-49 22 -49 22 -49 24 C-45.69432511 24.85387105 -45.69432511 24.85387105 -42 25 C-39.05427395 22.82946501 -38.15939059 21.47817177 -37 18 C-36.87528496 16.20964632 -36.77344816 14.41763299 -36.6875 12.625 C-36.28953261 7.91779193 -35.66361041 5.24491208 -32 2 C-28.14474698 -0.51675442 -23.84776856 -0.75873924 -19.375 -1.25 C-18.57336426 -1.34007324 -17.77172852 -1.43014648 -16.94580078 -1.52294922 C-11.0058126 -2.10073169 -5.72397642 -1.86964054 0 0 Z " fill="#FB0000" transform="translate(94,9)"/>
<path d="M0 0 C3.58875 -0.0928125 3.58875 -0.0928125 7.25 -0.1875 C8.37003418 -0.22846802 8.37003418 -0.22846802 9.51269531 -0.27026367 C12.5799191 -0.30862459 14.71897166 -0.14904379 17.4453125 1.296875 C19 3 19 3 19.625 6.4375 C19 10 19 10 16 12.4375 C14.515 13.2109375 14.515 13.2109375 13 14 C13.6496875 14.78246094 14.299375 15.56492187 14.96875 16.37109375 C15.8040625 17.38300781 16.639375 18.39492187 17.5 19.4375 C18.3353125 20.44683594 19.170625 21.45617187 20.03125 22.49609375 C22 25 22 25 22 26 C19.73046875 26.23828125 19.73046875 26.23828125 17 26 C15.05078125 24.35546875 15.05078125 24.35546875 13.3125 22.1875 C12.44044922 21.12595703 12.44044922 21.12595703 11.55078125 20.04296875 C10.30775882 18.40543543 9.14039401 16.71059102 8 15 C7.01 14.67 6.02 14.34 5 14 C5.14095064 15.6254308 5.28792087 17.25034051 5.4375 18.875 C5.51871094 19.77992187 5.59992187 20.68484375 5.68359375 21.6171875 C5.86989285 24.01110861 5.86989285 24.01110861 7 26 C4.69 26 2.38 26 0 26 C0 17.42 0 8.84 0 0 Z " fill="#EF0000" transform="translate(54,73)"/>
<path d="M0 0 C2.25390625 -0.25 2.25390625 -0.25 5 0 C7.02734375 1.6875 7.02734375 1.6875 8.9375 4 C9.61683594 4.81339844 10.29617187 5.62679687 10.99609375 6.46484375 C13.73348764 9.92794051 16.42208602 13.41630897 19 17 C19.02691685 14.54159395 19.04679802 12.08348118 19.0625 9.625 C19.07087891 8.92632812 19.07925781 8.22765625 19.08789062 7.5078125 C19.1835442 3.62704624 19.1835442 3.62704624 18 0 C19.98 0 21.96 0 24 0 C23.67 0.66 23.34 1.32 23 2 C22.84655791 3.88472859 22.75040429 5.77427874 22.68359375 7.6640625 C22.64169922 8.78554688 22.59980469 9.90703125 22.55664062 11.0625 C22.51732422 12.238125 22.47800781 13.41375 22.4375 14.625 C22.39431641 15.80835938 22.35113281 16.99171875 22.30664062 18.2109375 C22.20032574 21.14050328 22.09829358 24.07015588 22 27 C17.82962637 23.01532019 14.25328067 18.71457281 10.6875 14.1875 C8.810625 11.815625 6.93375 9.44375 5 7 C5 13.27 5 19.54 5 26 C3.35 26 1.7 26 0 26 C0.33 25.34 0.66 24.68 1 24 C1.09602313 22.35637388 1.13074561 20.70892734 1.1328125 19.0625 C1.13410156 18.08539063 1.13539062 17.10828125 1.13671875 16.1015625 C1.13285156 15.07804687 1.12898438 14.05453125 1.125 13 C1.12886719 11.97648437 1.13273437 10.95296875 1.13671875 9.8984375 C1.13542969 8.92132813 1.13414063 7.94421875 1.1328125 6.9375 C1.13112061 5.58978516 1.13112061 5.58978516 1.12939453 4.21484375 C1.14363084 1.95868875 1.14363084 1.95868875 0 0 Z " fill="#DE0000" transform="translate(17,43)"/>
<path d="M0 0 C7.9532739 1.13618199 7.9532739 1.13618199 11.5 4.8125 C12.1909375 5.49957031 12.881875 6.18664063 13.59375 6.89453125 C14.0578125 7.58933594 14.521875 8.28414062 15 9 C14.67 10.32 14.34 11.64 14 13 C11.03 13 8.06 13 5 13 C5.33 16.63 5.66 20.26 6 24 C8.1346875 24.0309375 8.1346875 24.0309375 10.3125 24.0625 C11.11300781 24.07410156 11.91351563 24.08570312 12.73828125 24.09765625 C15.69281523 23.9700857 17.50101558 23.46202261 19.6875 21.4375 C20.120625 20.963125 20.55375 20.48875 21 20 C20.67 21.98 20.34 23.96 20 26 C13.4 26 6.8 26 0 26 C0 17.42 0 8.84 0 0 Z " fill="#EF0000" transform="translate(47,43)"/>
<path d="M0 0 C0.99 1.32 1.98 2.64 3 4 C2.67 4.66 2.34 5.32 2 6 C-0.3260857 6.38063221 -2.66055264 6.71269945 -5 7 C-5.99 7.495 -5.99 7.495 -7 8 C-7.33 6.68 -7.66 5.36 -8 4 C-8.66 4 -9.32 4 -10 4 C-9.67 5.65 -9.34 7.3 -9 9 C-13.084979 9.54466387 -16.8725485 10 -21 10 C-21 8.02 -21 6.04 -21 4 C-19.81921875 3.79503906 -18.6384375 3.59007813 -17.421875 3.37890625 C-15.86457003 3.10684695 -14.3072791 2.83470732 -12.75 2.5625 C-11.97269531 2.42779297 -11.19539063 2.29308594 -10.39453125 2.15429688 C-9.64042969 2.02216797 -8.88632813 1.89003906 -8.109375 1.75390625 C-7.07248535 1.57323608 -7.07248535 1.57323608 -6.01464844 1.38891602 C-3.98733883 0.99755584 -1.99805485 0.51910249 0 0 Z " fill="#680000" transform="translate(85,116)"/>
<path d="M0 0 C2.97 0 5.94 0 9 0 C7.68 0.33 6.36 0.66 5 1 C5.0721875 1.82242188 5.144375 2.64484375 5.21875 3.4921875 C5.73583189 9.71153353 6.10092708 15.83334706 5.9375 22.07421875 C5.86847383 24.08525222 5.86847383 24.08525222 7 26 C4.69 26 2.38 26 0 26 C0 17.42 0 8.84 0 0 Z " fill="#F40000" transform="translate(54,73)"/>
<path d="M0 0 C6 0 6 0 8.375 1.1875 C10 3 10 3 10.4375 5.5 C10 8 10 8 8.9375 9.75 C6.10246091 11.57905748 3.31199025 11.68754809 0 12 C0 8.04 0 4.08 0 0 Z " fill="#180000" transform="translate(59,74)"/>
<path d="M0 0 C4.44995051 2.22497525 6.60084691 4.44633995 10 8 C9.67 8.99 9.34 9.98 9 11 C6.03 11 3.06 11 0 11 C0 7.37 0 3.74 0 0 Z " fill="#260000" transform="translate(52,44)"/>
<path d="M0 0 C4.00609065 0.57229866 6.56149315 1.93689589 10 4 C12.69254991 4.70670728 12.69254991 4.70670728 15 5 C14.67 6.65 14.34 8.3 14 10 C13.01 9.01 12.02 8.02 11 7 C10.34 7.66 9.68 8.32 9 9 C7.53932801 8.54917531 6.08151968 8.08906463 4.625 7.625 C3.81289063 7.36976562 3.00078125 7.11453125 2.1640625 6.8515625 C0 6 0 6 -2 4 C-1.34 2.68 -0.68 1.36 0 0 Z " fill="#6B0000" transform="translate(36,114)"/>
<path d="M0 0 C0.99 0 1.98 0 3 0 C3 0.66 3 1.32 3 2 C3.66 2 4.32 2 5 2 C6.37310707 3.29233607 7.71034824 4.62437146 9 6 C8.34 7.65 7.68 9.3 7 11 C6.01 11 5.02 11 4 11 C4 10.34 4 9.68 4 9 C2.68 8.34 1.36 7.68 0 7 C0 6.01 0 5.02 0 4 C-0.66 4 -1.32 4 -2 4 C-1.34 2.68 -0.68 1.36 0 0 Z " fill="#620000" transform="translate(17,99)"/>
<path d="M0 0 C2.49824035 1.4976696 4.86004673 3.01558218 7 5 C7.4375 7.8125 7.4375 7.8125 7 10 C6.01 10.495 6.01 10.495 5 11 C3 9.625 3 9.625 1 8 C1 7.34 1 6.68 1 6 C-0.32 5.67 -1.64 5.34 -3 5 C-1.125 1.125 -1.125 1.125 0 0 Z " fill="#540000" transform="translate(27,107)"/>
<path d="M0 0 C1.32 1.32 2.64 2.64 4 4 C1.14693203 6.32472205 -1.54074837 7.7508258 -5 9 C-5.99 7.68 -6.98 6.36 -8 5 C-5.31158141 2.74754119 -3.35358125 1.11786042 0 0 Z " fill="#5C0000" transform="translate(102,106)"/>
<path d="M0 0 C3.59634744 3.49359465 6.83451967 7.11098131 10 11 C9.34 12.65 8.68 14.3 8 16 C4.85751322 14.42875661 4.29871176 11.7022315 2.875 8.5625 C2.33617188 7.38816406 1.79734375 6.21382813 1.2421875 5.00390625 C0 2 0 2 0 0 Z " fill="#180000" transform="translate(84,76)"/>
<path d="M0 0 C0.66 0 1.32 0 2 0 C2.433125 0.886875 2.86625 1.77375 3.3125 2.6875 C4.76784817 5.54429455 6.31627474 8.27396863 8 11 C5 11 5 11 3.17578125 9.46875 C2.56089844 8.8190625 1.94601563 8.169375 1.3125 7.5 C0.68988281 6.8503125 0.06726562 6.200625 -0.57421875 5.53125 C-1.04472656 5.0259375 -1.51523437 4.520625 -2 4 C-1.34 2.68 -0.68 1.36 0 0 Z " fill="#E80000" transform="translate(35,19)"/>
<path d="M0 0 C0.598125 0.20625 1.19625 0.4125 1.8125 0.625 C1.8125 1.285 1.8125 1.945 1.8125 2.625 C2.4725 2.955 3.1325 3.285 3.8125 3.625 C-0.9375 6.625 -0.9375 6.625 -3.1875 6.625 C-3.8475 4.975 -4.5075 3.325 -5.1875 1.625 C-2.1875 -0.375 -2.1875 -0.375 0 0 Z " fill="#5B0000" transform="translate(92.1875,113.375)"/>
<path d="M0 0 C0.33 0 0.66 0 1 0 C1.03758423 0.83978394 1.03758423 0.83978394 1.07592773 1.6965332 C1.19203745 4.23541305 1.3146958 6.77393553 1.4375 9.3125 C1.47681641 10.19357422 1.51613281 11.07464844 1.55664062 11.98242188 C1.59853516 12.82998047 1.64042969 13.67753906 1.68359375 14.55078125 C1.73858032 15.72120972 1.73858032 15.72120972 1.79467773 16.9152832 C1.94125263 19.19329101 1.94125263 19.19329101 3 22 C1.35 22 -0.3 22 -2 22 C-1.67 21.34 -1.34 20.68 -1 20 C-0.84876169 18.4804236 -0.75118307 16.95527498 -0.68359375 15.4296875 C-0.64169922 14.53378906 -0.59980469 13.63789062 -0.55664062 12.71484375 C-0.49766602 11.30912109 -0.49766602 11.30912109 -0.4375 9.875 C-0.39431641 8.93011719 -0.35113281 7.98523437 -0.30664062 7.01171875 C-0.20040928 4.67462908 -0.09836824 2.3374317 0 0 Z " fill="#FA0000" transform="translate(19,47)"/>
<path d="M0 0 C1.32 0.33 2.64 0.66 4 1 C4 2.65 4 4.3 4 6 C3.01 6.495 3.01 6.495 2 7 C0.68 6.01 -0.64 5.02 -2 4 C-1.34 2.68 -0.68 1.36 0 0 Z " fill="#750000" transform="translate(30,111)"/>
<path d="M0 0 C1.98 0 3.96 0 6 0 C5.67 0.66 5.34 1.32 5 2 C4.7677354 4.71262116 4.58063765 7.40773126 4.4375 10.125 C4.39431641 10.87910156 4.35113281 11.63320313 4.30664062 12.41015625 C4.2005168 14.27321888 4.09974999 16.13658524 4 18 C3.67 18 3.34 18 3 18 C2.95101562 16.95199219 2.90203125 15.90398438 2.8515625 14.82421875 C2.77651857 13.44528646 2.70097143 12.0663815 2.625 10.6875 C2.5940625 9.99720703 2.563125 9.30691406 2.53125 8.59570312 C2.31875081 4.93009211 2.08066139 3.12099208 0 0 Z " fill="#F40000" transform="translate(35,43)"/>
<path d="M0 0 C1.32 1.32 2.64 2.64 4 4 C1.525 5.485 1.525 5.485 -1 7 C-1.66 5.68 -2.32 4.36 -3 3 C-2.01 2.01 -1.02 1.02 0 0 Z " fill="#7B0000" transform="translate(102,106)"/>
<path d="M0 0 C0.99 0.33 1.98 0.66 3 1 C2.34 2.65 1.68 4.3 1 6 C0.01 6 -0.98 6 -2 6 C-1.49396008 3.83125748 -1.00016187 2.00032373 0 0 Z " fill="#480000" transform="translate(23,104)"/>
<path d="M0 0 C0.66 0.33 1.32 0.66 2 1 C2 1.66 2 2.32 2 3 C2.66 3.33 3.32 3.66 4 4 C2.35 4.66 0.7 5.32 -1 6 C-1.33 5.01 -1.66 4.02 -2 3 C-1.34 2.01 -0.68 1.02 0 0 Z " fill="#810000" transform="translate(92,113)"/>
</svg>
